<svg width="203" height="22" viewBox="0 0 203 22" fill="none" xmlns="http://www.w3.org/2000/svg">
<mask id="mask0_1368_37" style="mask-type:luminance" maskUnits="userSpaceOnUse" x="1" y="1" width="20" height="20">
<path d="M1.57031 1.57144H20.4275V20.4286H1.57031V1.57144Z" fill="white"/>
</mask>
<g mask="url(#mask0_1368_37)">
<path d="M8.91595 20.3914C9.13573 20.3906 9.34504 20.2882 9.4835 20.1123L13.8001 14.6534C13.9788 14.4254 14.2429 14.2874 14.5262 14.2676C15.605 14.1949 16.0405 15.666 15.1043 16.2211L15.0576 16.2491C14.0481 16.8372 13.0385 17.4262 12.0298 18.0143C11.9493 18.0605 11.8785 18.1233 11.8205 18.1968L11.0823 19.136C10.6935 19.6307 11.0372 20.3667 11.6563 20.365C12.7238 20.3625 13.7912 20.3609 14.8587 20.3576C15.0833 20.3576 15.2951 20.2519 15.4351 20.0701L16.5171 18.6643C16.6531 18.4867 16.7055 18.2555 16.658 18.0341L15.1896 11.1685C15.1276 10.8828 15.188 10.5854 15.3482 10.345C15.9656 9.43481 17.3584 10.0023 17.1973 11.1L17.1893 11.1553C17.0082 12.3315 16.827 13.5077 16.6459 14.6839C16.6322 14.7781 16.6346 14.8739 16.6548 14.9656L16.91 16.1434C17.0444 16.7637 17.8204 16.9471 18.2053 16.4499C18.8211 15.6536 19.6125 14.6311 20.1969 13.8769C20.337 13.696 20.3885 13.4598 20.337 13.2351L19.9401 11.4907C19.8894 11.2701 19.7453 11.0843 19.5481 10.9852L13.4 7.88196C13.144 7.75394 12.954 7.52018 12.8719 7.24183C12.5628 6.17879 13.8637 5.41558 14.5995 6.22918L14.6373 6.27047C15.4206 7.14849 16.2039 8.02734 16.9872 8.90618C17.05 8.97556 17.1249 9.03255 17.2078 9.07468L18.264 9.60413C18.8211 9.88331 19.4434 9.37451 19.3049 8.75585C19.065 7.68868 18.8251 6.62152 18.586 5.55435C18.5353 5.32968 18.3872 5.14136 18.1843 5.04224L16.6073 4.27325C16.4084 4.17579 16.1774 4.17496 15.9777 4.2716L9.78056 7.26826C9.52214 7.39381 9.22589 7.40042 8.96264 7.29304C7.96037 6.8784 8.18981 5.35859 9.26775 5.27599L9.32249 5.27186C10.4801 5.19092 11.6386 5.10997 12.7962 5.02902C12.888 5.02324 12.979 4.99846 13.0619 4.95799L14.1245 4.44093C14.684 4.16835 14.6856 3.35228 14.1261 3.07723C13.1633 2.60394 12.2013 2.13148 11.2393 1.6582C11.0364 1.55908 10.7997 1.5599 10.5985 1.66067L9.02866 2.44618C8.83062 2.54447 8.68571 2.73032 8.6358 2.95086L7.05471 9.78998C6.99031 10.0749 6.80998 10.317 6.56364 10.4615C5.62255 11.0066 4.60821 9.87505 5.21681 8.95822L5.2466 8.91196C5.90754 7.93235 6.56847 6.95356 7.2286 5.97477C7.28093 5.8963 7.31876 5.80875 7.33969 5.71624L7.60777 4.5417C7.74865 3.92304 7.12797 3.41258 6.57008 3.69011C5.6781 4.13284 4.53334 4.70194 3.68805 5.12153C3.48599 5.2223 3.33947 5.41228 3.29117 5.63695L2.91119 7.38555C2.86289 7.60691 2.91441 7.83819 3.05047 8.0166L7.27609 13.5482C7.4532 13.7778 7.52485 14.0735 7.48138 14.361C7.31071 15.4554 5.81496 15.5644 5.49616 14.5039L5.48006 14.4502C5.14597 13.3103 4.81108 12.1696 4.47699 11.0289C4.45042 10.9381 4.40695 10.8538 4.34979 10.7795L3.62204 9.83128C3.23804 9.33239 2.46198 9.51245 2.32593 10.1328C2.09086 11.2008 1.85579 12.2687 1.61992 13.3367C1.57001 13.5622 1.62314 13.7976 1.76402 13.9777L2.85967 15.3728C2.99894 15.5487 3.20664 15.652 3.42722 15.6536L10.2781 15.7123C10.5631 15.7139 10.8335 15.8403 11.0251 16.055C11.7529 16.8752 10.9028 18.1415 9.89648 17.7367L9.84577 17.7161C8.76863 17.2742 7.69069 16.8306 6.61355 16.3879C6.52741 16.3524 6.43644 16.3342 6.34386 16.3342L5.16851 16.3268C4.54864 16.3235 4.20167 17.0586 4.58889 17.5542C5.25626 18.4091 5.92364 19.264 6.59101 20.1189C6.73109 20.2989 6.94442 20.403 7.16903 20.4022L8.91595 20.3931V20.3914ZM6.95408 12.1159L7.55544 9.1581C7.60133 8.93344 7.74463 8.74181 7.94427 8.63856L10.5727 7.27569C10.7732 7.17245 11.0082 7.16749 11.2119 7.2633L13.8878 8.5221C14.0923 8.61874 14.2421 8.80458 14.296 9.0276L15.0052 11.959C15.0592 12.182 15.0109 12.4183 14.8748 12.6008L13.082 14.9978C12.946 15.1812 12.7358 15.2894 12.512 15.2935L9.56803 15.3513C9.34423 15.3554 9.13009 15.2547 8.98679 15.0779L7.10784 12.7511C6.96535 12.5744 6.90819 12.3398 6.95408 12.1151V12.1159Z" fill="#FF0033"/>
</g>
<path d="M30.672 17.16C29.8827 17.16 29.1893 17.0427 28.592 16.808C27.9947 16.5733 27.4187 16.2 26.864 15.688C26.7893 15.6133 26.7253 15.5333 26.672 15.448C26.6293 15.352 26.608 15.2507 26.608 15.144C26.608 14.9733 26.6667 14.824 26.784 14.696C26.912 14.5573 27.0667 14.488 27.248 14.488C27.3973 14.488 27.5307 14.5467 27.648 14.664C28.064 15.0693 28.512 15.3787 28.992 15.592C29.4827 15.8053 30.032 15.912 30.64 15.912C31.1093 15.912 31.5307 15.8373 31.904 15.688C32.288 15.5387 32.592 15.3307 32.816 15.064C33.04 14.7973 33.152 14.488 33.152 14.136C33.1413 13.7093 33.0133 13.3573 32.768 13.08C32.5333 12.8027 32.2027 12.5733 31.776 12.392C31.36 12.2 30.8747 12.04 30.32 11.912C29.8293 11.7947 29.376 11.6507 28.96 11.48C28.5547 11.3093 28.2027 11.1013 27.904 10.856C27.6053 10.6 27.3707 10.296 27.2 9.944C27.04 9.58133 26.96 9.16 26.96 8.68C26.96 8.072 27.12 7.53867 27.44 7.08C27.76 6.62133 28.2027 6.26933 28.768 6.024C29.3333 5.768 29.984 5.64 30.72 5.64C31.3707 5.64 31.984 5.74667 32.56 5.96C33.1467 6.17333 33.616 6.46667 33.968 6.84C34.1813 7.04267 34.288 7.24 34.288 7.432C34.288 7.592 34.2187 7.74133 34.08 7.88C33.952 8.008 33.8027 8.072 33.632 8.072C33.5147 8.072 33.408 8.02933 33.312 7.944C33.1307 7.74133 32.9013 7.56 32.624 7.4C32.3467 7.24 32.0427 7.112 31.712 7.016C31.3813 6.92 31.0507 6.872 30.72 6.872C30.2293 6.872 29.7973 6.94667 29.424 7.096C29.0507 7.23467 28.7573 7.43733 28.544 7.704C28.3413 7.96 28.24 8.26933 28.24 8.632C28.24 9.03733 28.3573 9.37333 28.592 9.64C28.8267 9.896 29.1413 10.1093 29.536 10.28C29.9307 10.44 30.368 10.584 30.848 10.712C31.3707 10.84 31.8507 10.9893 32.288 11.16C32.736 11.32 33.12 11.5227 33.44 11.768C33.76 12.0133 34.0053 12.328 34.176 12.712C34.3573 13.0853 34.448 13.5493 34.448 14.104C34.448 14.6907 34.2827 15.2133 33.952 15.672C33.6213 16.1307 33.168 16.4933 32.592 16.76C32.0267 17.016 31.3867 17.1493 30.672 17.16ZM42.5635 8.6C42.7448 8.6 42.8942 8.664 43.0115 8.792C43.1395 8.90933 43.2035 9.05867 43.2035 9.24V16.216C43.2035 17.112 43.0275 17.8533 42.6755 18.44C42.3235 19.0373 41.8488 19.48 41.2515 19.768C40.6648 20.056 39.9982 20.2 39.2515 20.2C38.8355 20.2 38.4355 20.1573 38.0515 20.072C37.6675 19.9867 37.3528 19.8747 37.1075 19.736C36.9048 19.64 36.7608 19.5173 36.6755 19.368C36.6008 19.2293 36.5902 19.08 36.6435 18.92C36.7182 18.728 36.8248 18.5947 36.9635 18.52C37.1128 18.4453 37.2675 18.4453 37.4275 18.52C37.5982 18.5947 37.8435 18.696 38.1635 18.824C38.4942 18.9627 38.8622 19.032 39.2675 19.032C39.8222 19.032 40.2968 18.9253 40.6915 18.712C41.0862 18.4987 41.3902 18.184 41.6035 17.768C41.8168 17.3627 41.9235 16.856 41.9235 16.248V15.112L42.1155 15.512C41.9448 15.8427 41.7155 16.1307 41.4275 16.376C41.1395 16.6213 40.8088 16.8133 40.4355 16.952C40.0622 17.0907 39.6515 17.16 39.2035 17.16C38.5955 17.16 38.0782 17.032 37.6515 16.776C37.2355 16.5093 36.9155 16.1467 36.6915 15.688C36.4782 15.2187 36.3715 14.68 36.3715 14.072V9.24C36.3715 9.05867 36.4302 8.90933 36.5475 8.792C36.6755 8.664 36.8302 8.6 37.0115 8.6C37.2035 8.6 37.3582 8.664 37.4755 8.792C37.5928 8.90933 37.6515 9.05867 37.6515 9.24V13.784C37.6515 14.5093 37.8115 15.0587 38.1315 15.432C38.4515 15.7947 38.9475 15.976 39.6195 15.976C40.0462 15.976 40.4302 15.88 40.7715 15.688C41.1235 15.496 41.4008 15.2347 41.6035 14.904C41.8168 14.5627 41.9235 14.1893 41.9235 13.784V9.24C41.9235 9.05867 41.9822 8.90933 42.0995 8.792C42.2168 8.664 42.3715 8.6 42.5635 8.6ZM49.3205 17.16C48.4672 17.16 47.7205 16.9787 47.0805 16.616C46.4405 16.2533 45.9392 15.7573 45.5765 15.128C45.2245 14.488 45.0485 13.752 45.0485 12.92C45.0485 11.992 45.2298 11.2027 45.5925 10.552C45.9658 9.89067 46.4458 9.38933 47.0325 9.048C47.6298 8.696 48.2592 8.52 48.9205 8.52C49.4112 8.52 49.8858 8.61067 50.3445 8.792C50.8032 8.97333 51.2085 9.24 51.5605 9.592C51.9125 9.93333 52.1952 10.3493 52.4085 10.84C52.6218 11.32 52.7338 11.8587 52.7445 12.456C52.7445 12.6267 52.6805 12.7707 52.5525 12.888C52.4245 13.0053 52.2752 13.064 52.1045 13.064H45.7845L45.4965 11.96H51.6565L51.4005 12.184V11.832C51.3578 11.3947 51.2085 11.0213 50.9525 10.712C50.7072 10.392 50.4032 10.1467 50.0405 9.976C49.6885 9.80533 49.3152 9.72 48.9205 9.72C48.6005 9.72 48.2805 9.77867 47.9605 9.896C47.6512 10.0027 47.3685 10.184 47.1125 10.44C46.8672 10.6853 46.6645 11.0053 46.5045 11.4C46.3552 11.7947 46.2805 12.2693 46.2805 12.824C46.2805 13.4427 46.4032 13.9867 46.6485 14.456C46.9045 14.9253 47.2565 15.2987 47.7045 15.576C48.1525 15.8427 48.6752 15.976 49.2725 15.976C49.6458 15.976 49.9712 15.928 50.2485 15.832C50.5258 15.736 50.7658 15.6187 50.9685 15.48C51.1712 15.3307 51.3418 15.1813 51.4805 15.032C51.6192 14.936 51.7525 14.888 51.8805 14.888C52.0405 14.888 52.1685 14.9413 52.2645 15.048C52.3712 15.1547 52.4245 15.2827 52.4245 15.432C52.4245 15.6133 52.3392 15.7733 52.1685 15.912C51.8698 16.2427 51.4645 16.536 50.9525 16.792C50.4405 17.0373 49.8965 17.16 49.3205 17.16ZM61.4844 5.16C61.6657 5.16 61.815 5.224 61.9324 5.352C62.0604 5.46933 62.1244 5.61867 62.1244 5.8V16.344C62.1244 16.5253 62.0604 16.68 61.9324 16.808C61.815 16.936 61.6657 17 61.4844 17C61.2924 17 61.1377 16.936 61.0204 16.808C60.903 16.68 60.8444 16.5253 60.8444 16.344V14.824L61.1484 14.712C61.1484 14.968 61.0684 15.24 60.9084 15.528C60.7484 15.8053 60.5297 16.0667 60.2524 16.312C59.975 16.5573 59.6444 16.76 59.2604 16.92C58.887 17.08 58.4817 17.16 58.0444 17.16C57.3297 17.16 56.679 16.9733 56.0924 16.6C55.5164 16.2267 55.0577 15.7147 54.7164 15.064C54.3857 14.4133 54.2204 13.672 54.2204 12.84C54.2204 11.9973 54.3857 11.2507 54.7164 10.6C55.0577 9.94933 55.5164 9.44267 56.0924 9.08C56.6684 8.70667 57.3084 8.52 58.0124 8.52C58.4604 8.52 58.8817 8.59467 59.2764 8.744C59.671 8.89333 60.0124 9.096 60.3004 9.352C60.599 9.608 60.8337 9.89067 61.0044 10.2C61.175 10.5093 61.2604 10.8187 61.2604 11.128L60.8444 11.032V5.8C60.8444 5.61867 60.903 5.46933 61.0204 5.352C61.1377 5.224 61.2924 5.16 61.4844 5.16ZM58.1884 15.976C58.7217 15.976 59.191 15.8427 59.5964 15.576C60.0124 15.2987 60.3324 14.9253 60.5564 14.456C60.791 13.976 60.9084 13.4373 60.9084 12.84C60.9084 12.232 60.791 11.6933 60.5564 11.224C60.3324 10.7547 60.0124 10.3867 59.5964 10.12C59.191 9.84267 58.7217 9.704 58.1884 9.704C57.6657 9.704 57.1964 9.84267 56.7804 10.12C56.375 10.3867 56.055 10.7547 55.8204 11.224C55.5857 11.6933 55.4684 12.232 55.4684 12.84C55.4684 13.4267 55.5857 13.96 55.8204 14.44C56.055 14.9093 56.375 15.2827 56.7804 15.56C57.1964 15.8373 57.6657 15.976 58.1884 15.976ZM70.4548 16.344C70.4548 16.5253 70.3854 16.68 70.2468 16.808C70.1188 16.936 69.9641 17 69.7828 17C69.5801 17 69.4201 16.936 69.3028 16.808C69.1854 16.68 69.1268 16.5253 69.1268 16.344V6.456C69.1268 6.264 69.1908 6.10933 69.3188 5.992C69.4468 5.864 69.6068 5.8 69.7988 5.8C69.9801 5.8 70.1348 5.864 70.2628 5.992C70.3908 6.10933 70.4548 6.264 70.4548 6.456V16.344ZM76.9954 8.6C77.7207 8.6 78.3074 8.78667 78.7554 9.16C79.214 9.52267 79.518 10.04 79.6674 10.712H79.4274L79.5394 10.424C79.6674 10.1253 79.886 9.83733 80.1954 9.56C80.5047 9.28267 80.862 9.05333 81.2674 8.872C81.6727 8.69067 82.094 8.6 82.5314 8.6C83.2354 8.6 83.79 8.75467 84.1954 9.064C84.6007 9.36267 84.8887 9.768 85.0594 10.28C85.2407 10.7813 85.3314 11.3467 85.3314 11.976V16.344C85.3314 16.5253 85.2674 16.68 85.1394 16.808C85.022 16.936 84.8727 17 84.6914 17C84.4994 17 84.3447 16.936 84.2274 16.808C84.11 16.68 84.0514 16.5253 84.0514 16.344V12.008C84.0514 11.592 83.9874 11.2187 83.8594 10.888C83.742 10.5467 83.5447 10.28 83.2674 10.088C83.0007 9.88533 82.6327 9.784 82.1634 9.784C81.726 9.784 81.326 9.88533 80.9634 10.088C80.6007 10.28 80.3127 10.5467 80.0994 10.888C79.886 11.2187 79.7794 11.592 79.7794 12.008V16.344C79.7794 16.5253 79.7207 16.68 79.6034 16.808C79.486 16.936 79.3314 17 79.1394 17C78.958 17 78.8034 16.936 78.6754 16.808C78.558 16.68 78.4994 16.5253 78.4994 16.344V11.96C78.4994 11.5547 78.4407 11.192 78.3234 10.872C78.2167 10.5413 78.03 10.28 77.7634 10.088C77.4967 9.88533 77.1287 9.784 76.6594 9.784C76.2327 9.784 75.8434 9.88533 75.4914 10.088C75.1394 10.28 74.8567 10.5413 74.6434 10.872C74.43 11.192 74.3234 11.5547 74.3234 11.96V16.344C74.3234 16.5253 74.2594 16.68 74.1314 16.808C74.014 16.936 73.8647 17 73.6834 17C73.502 17 73.3474 16.936 73.2194 16.808C73.102 16.68 73.0434 16.5253 73.0434 16.344V9.368C73.0434 9.18667 73.102 9.03733 73.2194 8.92C73.3474 8.792 73.502 8.728 73.6834 8.728C73.8754 8.728 74.03 8.792 74.1474 8.92C74.2647 9.03733 74.3234 9.18667 74.3234 9.368V10.584L73.9714 10.968C74.014 10.6907 74.1207 10.4133 74.2914 10.136C74.4727 9.85867 74.702 9.60267 74.9794 9.368C75.2567 9.13333 75.566 8.94667 75.9074 8.808C76.2487 8.66933 76.6114 8.6 76.9954 8.6ZM88.3396 17C88.1583 17 88.0036 16.936 87.8756 16.808C87.7583 16.68 87.6996 16.5253 87.6996 16.344V9.368C87.6996 9.18667 87.7583 9.03733 87.8756 8.92C88.0036 8.792 88.1583 8.728 88.3396 8.728C88.5316 8.728 88.6863 8.792 88.8036 8.92C88.921 9.03733 88.9796 9.18667 88.9796 9.368V11.48L88.7876 11.144C88.8516 10.8133 88.9636 10.4933 89.1236 10.184C89.2943 9.864 89.5076 9.58133 89.7636 9.336C90.0196 9.08 90.313 8.88267 90.6436 8.744C90.9743 8.59467 91.337 8.52 91.7316 8.52C91.9663 8.52 92.1796 8.57867 92.3716 8.696C92.5743 8.80267 92.6756 8.95733 92.6756 9.16C92.6756 9.384 92.617 9.54933 92.4996 9.656C92.3823 9.76267 92.249 9.816 92.0996 9.816C91.961 9.816 91.8276 9.78933 91.6996 9.736C91.5716 9.672 91.4116 9.64 91.2196 9.64C90.953 9.64 90.6863 9.71467 90.4196 9.864C90.1636 10.0027 89.9236 10.2053 89.6996 10.472C89.4863 10.7387 89.3103 11.0427 89.1716 11.384C89.0436 11.7147 88.9796 12.072 88.9796 12.456V16.344C88.9796 16.5253 88.9156 16.68 88.7876 16.808C88.6703 16.936 88.521 17 88.3396 17ZM100.75 8.648C100.931 8.648 101.081 8.712 101.198 8.84C101.326 8.95733 101.39 9.10667 101.39 9.288V16.344C101.39 16.5253 101.326 16.68 101.198 16.808C101.081 16.936 100.931 17 100.75 17C100.558 17 100.403 16.936 100.286 16.808C100.169 16.68 100.11 16.5253 100.11 16.344V14.824L100.414 14.792C100.414 15.0267 100.334 15.2827 100.174 15.56C100.014 15.8373 99.7953 16.0987 99.518 16.344C99.2407 16.5787 98.91 16.776 98.526 16.936C98.1527 17.0853 97.7473 17.16 97.31 17.16C96.5847 17.16 95.934 16.9733 95.358 16.6C94.782 16.216 94.3233 15.6987 93.982 15.048C93.6513 14.3973 93.486 13.656 93.486 12.824C93.486 11.9813 93.6513 11.24 93.982 10.6C94.3233 9.94933 94.782 9.44267 95.358 9.08C95.934 8.70667 96.574 8.52 97.278 8.52C97.7367 8.52 98.1633 8.59467 98.558 8.744C98.9527 8.89333 99.294 9.096 99.582 9.352C99.8807 9.608 100.11 9.89067 100.27 10.2C100.441 10.5093 100.526 10.8187 100.526 11.128L100.11 11.032V9.288C100.11 9.10667 100.169 8.95733 100.286 8.84C100.403 8.712 100.558 8.648 100.75 8.648ZM97.454 15.976C97.9873 15.976 98.4567 15.8373 98.862 15.56C99.278 15.2827 99.598 14.9093 99.822 14.44C100.057 13.96 100.174 13.4213 100.174 12.824C100.174 12.2373 100.057 11.7093 99.822 11.24C99.598 10.76 99.278 10.3867 98.862 10.12C98.4567 9.84267 97.9873 9.704 97.454 9.704C96.9313 9.704 96.462 9.83733 96.046 10.104C95.6407 10.3707 95.3207 10.7387 95.086 11.208C94.8513 11.6773 94.734 12.216 94.734 12.824C94.734 13.4213 94.846 13.96 95.07 14.44C95.3047 14.9093 95.6247 15.2827 96.03 15.56C96.446 15.8373 96.9207 15.976 97.454 15.976ZM107.874 8.52C108.599 8.52 109.17 8.66933 109.586 8.968C110.002 9.26667 110.295 9.66667 110.466 10.168C110.647 10.6693 110.738 11.2293 110.738 11.848V16.344C110.738 16.5253 110.674 16.68 110.546 16.808C110.429 16.936 110.279 17 110.098 17C109.917 17 109.762 16.936 109.634 16.808C109.517 16.68 109.458 16.5253 109.458 16.344V11.88C109.458 11.4747 109.394 11.112 109.266 10.792C109.149 10.4613 108.946 10.2 108.658 10.008C108.381 9.80533 107.997 9.704 107.506 9.704C107.058 9.704 106.647 9.80533 106.274 10.008C105.901 10.2 105.602 10.4613 105.378 10.792C105.154 11.112 105.042 11.4747 105.042 11.88V16.344C105.042 16.5253 104.978 16.68 104.85 16.808C104.733 16.936 104.583 17 104.402 17C104.221 17 104.066 16.936 103.938 16.808C103.821 16.68 103.762 16.5253 103.762 16.344V9.368C103.762 9.18667 103.821 9.03733 103.938 8.92C104.066 8.792 104.221 8.728 104.402 8.728C104.594 8.728 104.749 8.792 104.866 8.92C104.983 9.03733 105.042 9.18667 105.042 9.368V10.504L104.722 10.856C104.775 10.5787 104.898 10.3013 105.09 10.024C105.282 9.736 105.522 9.48 105.81 9.256C106.098 9.032 106.418 8.856 106.77 8.728C107.122 8.58933 107.49 8.52 107.874 8.52ZM121 17.16C120.211 17.16 119.517 17.0427 118.92 16.808C118.323 16.5733 117.747 16.2 117.192 15.688C117.117 15.6133 117.053 15.5333 117 15.448C116.957 15.352 116.936 15.2507 116.936 15.144C116.936 14.9733 116.995 14.824 117.112 14.696C117.24 14.5573 117.395 14.488 117.576 14.488C117.725 14.488 117.859 14.5467 117.976 14.664C118.392 15.0693 118.84 15.3787 119.32 15.592C119.811 15.8053 120.36 15.912 120.968 15.912C121.437 15.912 121.859 15.8373 122.232 15.688C122.616 15.5387 122.92 15.3307 123.144 15.064C123.368 14.7973 123.48 14.488 123.48 14.136C123.469 13.7093 123.341 13.3573 123.096 13.08C122.861 12.8027 122.531 12.5733 122.104 12.392C121.688 12.2 121.203 12.04 120.648 11.912C120.157 11.7947 119.704 11.6507 119.288 11.48C118.883 11.3093 118.531 11.1013 118.232 10.856C117.933 10.6 117.699 10.296 117.528 9.944C117.368 9.58133 117.288 9.16 117.288 8.68C117.288 8.072 117.448 7.53867 117.768 7.08C118.088 6.62133 118.531 6.26933 119.096 6.024C119.661 5.768 120.312 5.64 121.048 5.64C121.699 5.64 122.312 5.74667 122.888 5.96C123.475 6.17333 123.944 6.46667 124.296 6.84C124.509 7.04267 124.616 7.24 124.616 7.432C124.616 7.592 124.547 7.74133 124.408 7.88C124.28 8.008 124.131 8.072 123.96 8.072C123.843 8.072 123.736 8.02933 123.64 7.944C123.459 7.74133 123.229 7.56 122.952 7.4C122.675 7.24 122.371 7.112 122.04 7.016C121.709 6.92 121.379 6.872 121.048 6.872C120.557 6.872 120.125 6.94667 119.752 7.096C119.379 7.23467 119.085 7.43733 118.872 7.704C118.669 7.96 118.568 8.26933 118.568 8.632C118.568 9.03733 118.685 9.37333 118.92 9.64C119.155 9.896 119.469 10.1093 119.864 10.28C120.259 10.44 120.696 10.584 121.176 10.712C121.699 10.84 122.179 10.9893 122.616 11.16C123.064 11.32 123.448 11.5227 123.768 11.768C124.088 12.0133 124.333 12.328 124.504 12.712C124.685 13.0853 124.776 13.5493 124.776 14.104C124.776 14.6907 124.611 15.2133 124.28 15.672C123.949 16.1307 123.496 16.4933 122.92 16.76C122.355 17.016 121.715 17.1493 121 17.16ZM133.516 8.648C133.697 8.648 133.846 8.712 133.964 8.84C134.092 8.95733 134.156 9.10667 134.156 9.288V16.344C134.156 16.5253 134.092 16.68 133.964 16.808C133.846 16.936 133.697 17 133.516 17C133.324 17 133.169 16.936 133.052 16.808C132.934 16.68 132.876 16.5253 132.876 16.344V14.824L133.18 14.792C133.18 15.0267 133.1 15.2827 132.94 15.56C132.78 15.8373 132.561 16.0987 132.284 16.344C132.006 16.5787 131.676 16.776 131.292 16.936C130.918 17.0853 130.513 17.16 130.076 17.16C129.35 17.16 128.7 16.9733 128.124 16.6C127.548 16.216 127.089 15.6987 126.748 15.048C126.417 14.3973 126.252 13.656 126.252 12.824C126.252 11.9813 126.417 11.24 126.748 10.6C127.089 9.94933 127.548 9.44267 128.124 9.08C128.7 8.70667 129.34 8.52 130.044 8.52C130.502 8.52 130.929 8.59467 131.324 8.744C131.718 8.89333 132.06 9.096 132.348 9.352C132.646 9.608 132.876 9.89067 133.036 10.2C133.206 10.5093 133.292 10.8187 133.292 11.128L132.876 11.032V9.288C132.876 9.10667 132.934 8.95733 133.052 8.84C133.169 8.712 133.324 8.648 133.516 8.648ZM130.22 15.976C130.753 15.976 131.222 15.8373 131.628 15.56C132.044 15.2827 132.364 14.9093 132.588 14.44C132.822 13.96 132.94 13.4213 132.94 12.824C132.94 12.2373 132.822 11.7093 132.588 11.24C132.364 10.76 132.044 10.3867 131.628 10.12C131.222 9.84267 130.753 9.704 130.22 9.704C129.697 9.704 129.228 9.83733 128.812 10.104C128.406 10.3707 128.086 10.7387 127.852 11.208C127.617 11.6773 127.5 12.216 127.5 12.824C127.5 13.4213 127.612 13.96 127.836 14.44C128.07 14.9093 128.39 15.2827 128.796 15.56C129.212 15.8373 129.686 15.976 130.22 15.976ZM140.352 17.16C139.498 17.16 138.752 16.9787 138.112 16.616C137.472 16.2533 136.97 15.7573 136.608 15.128C136.256 14.488 136.08 13.752 136.08 12.92C136.08 11.992 136.261 11.2027 136.624 10.552C136.997 9.89067 137.477 9.38933 138.064 9.048C138.661 8.696 139.29 8.52 139.952 8.52C140.442 8.52 140.917 8.61067 141.376 8.792C141.834 8.97333 142.24 9.24 142.592 9.592C142.944 9.93333 143.226 10.3493 143.44 10.84C143.653 11.32 143.765 11.8587 143.776 12.456C143.776 12.6267 143.712 12.7707 143.584 12.888C143.456 13.0053 143.306 13.064 143.136 13.064H136.816L136.528 11.96H142.688L142.432 12.184V11.832C142.389 11.3947 142.24 11.0213 141.984 10.712C141.738 10.392 141.434 10.1467 141.072 9.976C140.72 9.80533 140.346 9.72 139.952 9.72C139.632 9.72 139.312 9.77867 138.992 9.896C138.682 10.0027 138.4 10.184 138.144 10.44C137.898 10.6853 137.696 11.0053 137.536 11.4C137.386 11.7947 137.312 12.2693 137.312 12.824C137.312 13.4427 137.434 13.9867 137.68 14.456C137.936 14.9253 138.288 15.2987 138.736 15.576C139.184 15.8427 139.706 15.976 140.304 15.976C140.677 15.976 141.002 15.928 141.28 15.832C141.557 15.736 141.797 15.6187 142 15.48C142.202 15.3307 142.373 15.1813 142.512 15.032C142.65 14.936 142.784 14.888 142.912 14.888C143.072 14.888 143.2 14.9413 143.296 15.048C143.402 15.1547 143.456 15.2827 143.456 15.432C143.456 15.6133 143.37 15.7733 143.2 15.912C142.901 16.2427 142.496 16.536 141.984 16.792C141.472 17.0373 140.928 17.16 140.352 17.16ZM149.524 17.16C148.67 17.16 147.924 16.9787 147.284 16.616C146.644 16.2533 146.142 15.7573 145.78 15.128C145.428 14.488 145.252 13.752 145.252 12.92C145.252 11.992 145.433 11.2027 145.796 10.552C146.169 9.89067 146.649 9.38933 147.236 9.048C147.833 8.696 148.462 8.52 149.124 8.52C149.614 8.52 150.089 8.61067 150.548 8.792C151.006 8.97333 151.412 9.24 151.764 9.592C152.116 9.93333 152.398 10.3493 152.612 10.84C152.825 11.32 152.937 11.8587 152.948 12.456C152.948 12.6267 152.884 12.7707 152.756 12.888C152.628 13.0053 152.478 13.064 152.308 13.064H145.988L145.7 11.96H151.86L151.604 12.184V11.832C151.561 11.3947 151.412 11.0213 151.156 10.712C150.91 10.392 150.606 10.1467 150.244 9.976C149.892 9.80533 149.518 9.72 149.124 9.72C148.804 9.72 148.484 9.77867 148.164 9.896C147.854 10.0027 147.572 10.184 147.316 10.44C147.07 10.6853 146.868 11.0053 146.708 11.4C146.558 11.7947 146.484 12.2693 146.484 12.824C146.484 13.4427 146.606 13.9867 146.852 14.456C147.108 14.9253 147.46 15.2987 147.908 15.576C148.356 15.8427 148.878 15.976 149.476 15.976C149.849 15.976 150.174 15.928 150.452 15.832C150.729 15.736 150.969 15.6187 151.172 15.48C151.374 15.3307 151.545 15.1813 151.684 15.032C151.822 14.936 151.956 14.888 152.084 14.888C152.244 14.888 152.372 14.9413 152.468 15.048C152.574 15.1547 152.628 15.2827 152.628 15.432C152.628 15.6133 152.542 15.7733 152.372 15.912C152.073 16.2427 151.668 16.536 151.156 16.792C150.644 17.0373 150.1 17.16 149.524 17.16ZM161.688 5.16C161.869 5.16 162.018 5.224 162.135 5.352C162.264 5.46933 162.328 5.61867 162.328 5.8V16.344C162.328 16.5253 162.264 16.68 162.135 16.808C162.018 16.936 161.869 17 161.688 17C161.496 17 161.341 16.936 161.224 16.808C161.106 16.68 161.048 16.5253 161.048 16.344V14.824L161.352 14.712C161.352 14.968 161.272 15.24 161.112 15.528C160.952 15.8053 160.733 16.0667 160.456 16.312C160.178 16.5573 159.848 16.76 159.464 16.92C159.09 17.08 158.685 17.16 158.248 17.16C157.533 17.16 156.882 16.9733 156.296 16.6C155.72 16.2267 155.261 15.7147 154.92 15.064C154.589 14.4133 154.424 13.672 154.424 12.84C154.424 11.9973 154.589 11.2507 154.92 10.6C155.261 9.94933 155.72 9.44267 156.296 9.08C156.872 8.70667 157.512 8.52 158.216 8.52C158.664 8.52 159.085 8.59467 159.48 8.744C159.874 8.89333 160.216 9.096 160.504 9.352C160.802 9.608 161.037 9.89067 161.208 10.2C161.378 10.5093 161.464 10.8187 161.464 11.128L161.048 11.032V5.8C161.048 5.61867 161.106 5.46933 161.224 5.352C161.341 5.224 161.496 5.16 161.688 5.16ZM158.391 15.976C158.925 15.976 159.394 15.8427 159.8 15.576C160.216 15.2987 160.536 14.9253 160.76 14.456C160.994 13.976 161.112 13.4373 161.112 12.84C161.112 12.232 160.994 11.6933 160.76 11.224C160.536 10.7547 160.216 10.3867 159.8 10.12C159.394 9.84267 158.925 9.704 158.391 9.704C157.869 9.704 157.4 9.84267 156.984 10.12C156.578 10.3867 156.258 10.7547 156.024 11.224C155.789 11.6933 155.672 12.232 155.672 12.84C155.672 13.4267 155.789 13.96 156.024 14.44C156.258 14.9093 156.578 15.2827 156.984 15.56C157.4 15.8373 157.869 15.976 158.391 15.976ZM170.066 17C169.863 17 169.687 16.936 169.538 16.808C169.399 16.68 169.33 16.5253 169.33 16.344V6.44C169.33 6.25867 169.389 6.10933 169.506 5.992C169.634 5.864 169.789 5.8 169.97 5.8H174.386C174.983 5.8 175.522 5.93867 176.002 6.216C176.482 6.48267 176.861 6.856 177.138 7.336C177.426 7.80533 177.57 8.34933 177.57 8.968C177.57 9.416 177.485 9.83733 177.314 10.232C177.143 10.616 176.909 10.952 176.61 11.24C176.311 11.5173 175.97 11.7307 175.586 11.88L175.234 11.624C175.597 11.7093 175.922 11.864 176.21 12.088C176.498 12.3013 176.733 12.5787 176.914 12.92C177.095 13.2507 177.191 13.64 177.202 14.088C177.223 14.4827 177.25 14.7973 177.282 15.032C177.314 15.2667 177.362 15.4533 177.426 15.592C177.49 15.72 177.581 15.8213 177.698 15.896C177.847 15.992 177.943 16.12 177.986 16.28C178.039 16.44 178.013 16.5947 177.906 16.744C177.842 16.84 177.751 16.9093 177.634 16.952C177.517 16.984 177.399 16.9947 177.282 16.984C177.165 16.9733 177.063 16.9413 176.978 16.888C176.807 16.792 176.642 16.6533 176.482 16.472C176.322 16.28 176.189 16.008 176.082 15.656C175.975 15.304 175.922 14.824 175.922 14.216C175.922 13.8747 175.869 13.592 175.762 13.368C175.655 13.144 175.511 12.9627 175.33 12.824C175.149 12.6853 174.946 12.5893 174.722 12.536C174.498 12.4827 174.269 12.456 174.034 12.456H170.466L170.658 12.168V16.344C170.658 16.5253 170.605 16.68 170.498 16.808C170.391 16.936 170.247 17 170.066 17ZM170.466 11.304H174.386C174.695 11.2827 174.983 11.176 175.25 10.984C175.527 10.792 175.751 10.5253 175.922 10.184C176.103 9.832 176.194 9.43733 176.194 9C176.194 8.43467 176.013 7.96533 175.65 7.592C175.298 7.21867 174.85 7.032 174.306 7.032H170.53L170.658 6.728V11.592L170.466 11.304ZM181.15 16.344C181.15 16.5253 181.086 16.68 180.958 16.808C180.841 16.936 180.692 17 180.51 17C180.318 17 180.164 16.936 180.046 16.808C179.929 16.68 179.87 16.5253 179.87 16.344V9.24C179.87 9.05867 179.929 8.90933 180.046 8.792C180.174 8.664 180.329 8.6 180.51 8.6C180.692 8.6 180.841 8.664 180.958 8.792C181.086 8.90933 181.15 9.05867 181.15 9.24V16.344ZM180.51 7.528C180.244 7.528 180.046 7.47467 179.918 7.368C179.79 7.26133 179.726 7.096 179.726 6.872V6.648C179.726 6.424 179.796 6.25867 179.934 6.152C180.073 6.04533 180.27 5.992 180.526 5.992C180.782 5.992 180.974 6.04533 181.102 6.152C181.23 6.25867 181.294 6.424 181.294 6.648V6.872C181.294 7.096 181.225 7.26133 181.086 7.368C180.958 7.47467 180.766 7.528 180.51 7.528ZM188.698 15.816C188.868 15.816 189.012 15.8747 189.13 15.992C189.247 16.0987 189.306 16.2373 189.306 16.408C189.306 16.568 189.247 16.7067 189.13 16.824C189.012 16.9413 188.868 17 188.698 17H183.514C183.322 17 183.172 16.9307 183.066 16.792C182.959 16.6533 182.906 16.5253 182.906 16.408C182.916 16.3013 182.932 16.2107 182.954 16.136C182.975 16.0613 183.023 15.976 183.098 15.88L187.674 9.688L187.69 9.864H183.818C183.647 9.864 183.503 9.80533 183.386 9.688C183.268 9.57067 183.21 9.42667 183.21 9.256C183.21 9.096 183.268 8.96267 183.386 8.856C183.503 8.73867 183.647 8.68 183.818 8.68H188.73C188.9 8.68 189.039 8.744 189.146 8.872C189.263 8.98933 189.322 9.13867 189.322 9.32C189.311 9.39467 189.295 9.46933 189.274 9.544C189.252 9.608 189.21 9.688 189.146 9.784L184.618 15.896L184.506 15.816H188.698ZM191.153 8.584C191.281 8.584 191.403 8.62133 191.521 8.696C191.638 8.76 191.723 8.856 191.777 8.984L194.433 15.224L194.177 15.352L196.881 9C196.998 8.712 197.195 8.57333 197.473 8.584C197.633 8.584 197.771 8.63733 197.889 8.744C198.006 8.85067 198.065 8.984 198.065 9.144C198.065 9.208 198.054 9.272 198.033 9.336C198.022 9.38933 198.006 9.43733 197.985 9.48L194.897 16.584C194.779 16.8507 194.593 16.9893 194.337 17C194.198 17.0107 194.065 16.984 193.937 16.92C193.819 16.8453 193.734 16.7333 193.681 16.584L190.593 9.496C190.571 9.45333 190.55 9.40533 190.529 9.352C190.518 9.29867 190.513 9.23467 190.513 9.16C190.513 9.02133 190.566 8.89333 190.673 8.776C190.79 8.648 190.95 8.584 191.153 8.584ZM201.025 16.344C201.025 16.5253 200.961 16.68 200.833 16.808C200.716 16.936 200.567 17 200.385 17C200.193 17 200.039 16.936 199.921 16.808C199.804 16.68 199.745 16.5253 199.745 16.344V9.24C199.745 9.05867 199.804 8.90933 199.921 8.792C200.049 8.664 200.204 8.6 200.385 8.6C200.567 8.6 200.716 8.664 200.833 8.792C200.961 8.90933 201.025 9.05867 201.025 9.24V16.344ZM200.385 7.528C200.119 7.528 199.921 7.47467 199.793 7.368C199.665 7.26133 199.601 7.096 199.601 6.872V6.648C199.601 6.424 199.671 6.25867 199.809 6.152C199.948 6.04533 200.145 5.992 200.401 5.992C200.657 5.992 200.849 6.04533 200.977 6.152C201.105 6.25867 201.169 6.424 201.169 6.648V6.872C201.169 7.096 201.1 7.26133 200.961 7.368C200.833 7.47467 200.641 7.528 200.385 7.528Z" fill="white"/>
</svg>
