<svg width="203" height="22" viewBox="0 0 203 22" fill="none" xmlns="http://www.w3.org/2000/svg">
<g clip-path="url(#clip0_1_7)">
<mask id="mask0_1_7" style="mask-type:luminance" maskUnits="userSpaceOnUse" x="1" y="1" width="20" height="20">
<path d="M1.57031 1.57144H20.4275V20.4286H1.57031V1.57144Z" fill="white"/>
</mask>
<g mask="url(#mask0_1_7)">
<path d="M8.91595 20.3914C9.13573 20.3906 9.34504 20.2882 9.4835 20.1123L13.8001 14.6534C13.9788 14.4254 14.2429 14.2874 14.5262 14.2676C15.605 14.1949 16.0405 15.666 15.1043 16.2211L15.0576 16.2491C14.0481 16.8372 13.0385 17.4262 12.0298 18.0143C11.9493 18.0605 11.8785 18.1233 11.8205 18.1968L11.0823 19.136C10.6935 19.6307 11.0372 20.3667 11.6563 20.365C12.7238 20.3625 13.7912 20.3609 14.8587 20.3576C15.0833 20.3576 15.2951 20.2519 15.4351 20.0701L16.5171 18.6643C16.6531 18.4867 16.7055 18.2555 16.658 18.0341L15.1896 11.1685C15.1276 10.8828 15.188 10.5854 15.3482 10.345C15.9656 9.43481 17.3584 10.0023 17.1973 11.1L17.1893 11.1553C17.0082 12.3315 16.827 13.5077 16.6459 14.6839C16.6322 14.7781 16.6346 14.8739 16.6548 14.9656L16.91 16.1434C17.0444 16.7637 17.8204 16.9471 18.2053 16.4499C18.8211 15.6536 19.6125 14.6311 20.1969 13.8769C20.337 13.696 20.3885 13.4598 20.337 13.2351L19.9401 11.4907C19.8894 11.2701 19.7453 11.0843 19.5481 10.9852L13.4 7.88196C13.144 7.75394 12.954 7.52018 12.8719 7.24183C12.5628 6.17879 13.8637 5.41558 14.5995 6.22918L14.6373 6.27047C15.4206 7.14849 16.2039 8.02734 16.9872 8.90618C17.05 8.97556 17.1249 9.03255 17.2078 9.07468L18.264 9.60413C18.8211 9.88331 19.4434 9.37451 19.3049 8.75585C19.065 7.68868 18.8251 6.62152 18.586 5.55435C18.5353 5.32968 18.3872 5.14136 18.1843 5.04224L16.6073 4.27325C16.4084 4.17579 16.1774 4.17496 15.9777 4.2716L9.78056 7.26826C9.52214 7.39381 9.22589 7.40042 8.96264 7.29304C7.96037 6.8784 8.18981 5.35859 9.26775 5.27599L9.32249 5.27186C10.4801 5.19092 11.6386 5.10997 12.7962 5.02902C12.888 5.02324 12.979 4.99846 13.0619 4.95799L14.1245 4.44093C14.684 4.16835 14.6856 3.35228 14.1261 3.07723C13.1633 2.60394 12.2013 2.13148 11.2393 1.6582C11.0364 1.55908 10.7997 1.5599 10.5985 1.66067L9.02866 2.44618C8.83062 2.54447 8.68571 2.73032 8.6358 2.95086L7.05471 9.78998C6.99031 10.0749 6.80998 10.317 6.56364 10.4615C5.62255 11.0066 4.60821 9.87505 5.21681 8.95822L5.2466 8.91196C5.90754 7.93235 6.56847 6.95356 7.2286 5.97477C7.28093 5.8963 7.31876 5.80875 7.33969 5.71624L7.60777 4.5417C7.74865 3.92304 7.12797 3.41258 6.57008 3.69011C5.6781 4.13284 4.53334 4.70194 3.68805 5.12153C3.48599 5.2223 3.33947 5.41228 3.29117 5.63695L2.91119 7.38555C2.86289 7.60691 2.91441 7.83819 3.05047 8.0166L7.27609 13.5482C7.4532 13.7778 7.52485 14.0735 7.48138 14.361C7.31071 15.4554 5.81496 15.5644 5.49616 14.5039L5.48006 14.4502C5.14597 13.3103 4.81108 12.1696 4.47699 11.0289C4.45042 10.9381 4.40695 10.8538 4.34979 10.7795L3.62204 9.83128C3.23804 9.33239 2.46198 9.51245 2.32593 10.1328C2.09086 11.2008 1.85579 12.2687 1.61992 13.3367C1.57001 13.5622 1.62314 13.7976 1.76402 13.9777L2.85967 15.3728C2.99894 15.5487 3.20664 15.652 3.42722 15.6536L10.2781 15.7123C10.5631 15.7139 10.8335 15.8403 11.0251 16.055C11.7529 16.8752 10.9028 18.1415 9.89648 17.7367L9.84577 17.7161C8.76863 17.2742 7.69069 16.8306 6.61355 16.3879C6.52741 16.3524 6.43644 16.3342 6.34386 16.3342L5.16851 16.3268C4.54864 16.3235 4.20167 17.0586 4.58889 17.5542C5.25626 18.4091 5.92364 19.264 6.59101 20.1189C6.73109 20.2989 6.94442 20.403 7.16903 20.4022L8.91595 20.3931V20.3914ZM6.95408 12.1159L7.55544 9.1581C7.60133 8.93344 7.74463 8.74181 7.94427 8.63856L10.5727 7.27569C10.7732 7.17245 11.0082 7.16749 11.2119 7.2633L13.8878 8.5221C14.0923 8.61874 14.2421 8.80458 14.296 9.0276L15.0052 11.959C15.0592 12.182 15.0109 12.4183 14.8748 12.6008L13.082 14.9978C12.946 15.1812 12.7358 15.2894 12.512 15.2935L9.56803 15.3513C9.34423 15.3554 9.13009 15.2547 8.98679 15.0779L7.10784 12.7511C6.96535 12.5744 6.90819 12.3406 6.95408 12.1159Z" fill="#00BFFF"/>
</g>
<path d="M33.3828 14.125C33.3828 13.8594 33.3411 13.625 33.2578 13.4219C33.1797 13.2135 33.0391 13.026 32.8359 12.8594C32.638 12.6927 32.362 12.5339 32.0078 12.3828C31.6589 12.2318 31.2161 12.0781 30.6797 11.9219C30.1172 11.7552 29.6094 11.5703 29.1562 11.3672C28.7031 11.1589 28.3151 10.9219 27.9922 10.6562C27.6693 10.3906 27.4219 10.0859 27.25 9.74219C27.0781 9.39844 26.9922 9.00521 26.9922 8.5625C26.9922 8.11979 27.0833 7.71094 27.2656 7.33594C27.4479 6.96094 27.7083 6.63542 28.0469 6.35938C28.3906 6.07812 28.7995 5.85938 29.2734 5.70312C29.7474 5.54688 30.276 5.46875 30.8594 5.46875C31.7135 5.46875 32.4375 5.63281 33.0312 5.96094C33.6302 6.28385 34.0859 6.70833 34.3984 7.23438C34.7109 7.75521 34.8672 8.3125 34.8672 8.90625H33.3672C33.3672 8.47917 33.276 8.10156 33.0938 7.77344C32.9115 7.4401 32.6354 7.17969 32.2656 6.99219C31.8958 6.79948 31.4271 6.70312 30.8594 6.70312C30.3229 6.70312 29.8802 6.78385 29.5312 6.94531C29.1823 7.10677 28.9219 7.32552 28.75 7.60156C28.5833 7.8776 28.5 8.19271 28.5 8.54688C28.5 8.78646 28.5495 9.00521 28.6484 9.20312C28.7526 9.39583 28.9115 9.57552 29.125 9.74219C29.3438 9.90885 29.6198 10.0625 29.9531 10.2031C30.2917 10.3438 30.6953 10.4792 31.1641 10.6094C31.8099 10.7917 32.3672 10.9948 32.8359 11.2188C33.3047 11.4427 33.6901 11.6953 33.9922 11.9766C34.2995 12.2526 34.526 12.5677 34.6719 12.9219C34.8229 13.2708 34.8984 13.6667 34.8984 14.1094C34.8984 14.5729 34.8047 14.9922 34.6172 15.3672C34.4297 15.7422 34.1615 16.0625 33.8125 16.3281C33.4635 16.5938 33.0443 16.7995 32.5547 16.9453C32.0703 17.0859 31.5286 17.1562 30.9297 17.1562C30.4036 17.1562 29.8854 17.0833 29.375 16.9375C28.8698 16.7917 28.4089 16.5729 27.9922 16.2812C27.5807 15.9896 27.25 15.6302 27 15.2031C26.7552 14.7708 26.6328 14.2708 26.6328 13.7031H28.1328C28.1328 14.0938 28.2083 14.4297 28.3594 14.7109C28.5104 14.987 28.7161 15.2161 28.9766 15.3984C29.2422 15.5807 29.5417 15.7161 29.875 15.8047C30.2135 15.888 30.5651 15.9297 30.9297 15.9297C31.4557 15.9297 31.901 15.8568 32.2656 15.7109C32.6302 15.5651 32.9062 15.3568 33.0938 15.0859C33.2865 14.8151 33.3828 14.4948 33.3828 14.125ZM38.9766 16.125L41.3281 8.54688H42.875L39.4844 18.3047C39.4062 18.513 39.3021 18.737 39.1719 18.9766C39.0469 19.2214 38.8854 19.4531 38.6875 19.6719C38.4896 19.8906 38.25 20.0677 37.9688 20.2031C37.6927 20.3438 37.362 20.4141 36.9766 20.4141C36.862 20.4141 36.7161 20.3984 36.5391 20.3672C36.362 20.3359 36.237 20.3099 36.1641 20.2891L36.1562 19.1172C36.1979 19.1224 36.263 19.1276 36.3516 19.1328C36.4453 19.1432 36.5104 19.1484 36.5469 19.1484C36.875 19.1484 37.1536 19.1042 37.3828 19.0156C37.612 18.9323 37.8047 18.7891 37.9609 18.5859C38.1224 18.388 38.2604 18.1146 38.375 17.7656L38.9766 16.125ZM37.25 8.54688L39.4453 15.1094L39.8203 16.6328L38.7812 17.1641L35.6719 8.54688H37.25ZM47.5781 17.1562C46.9896 17.1562 46.4557 17.0573 45.9766 16.8594C45.5026 16.6562 45.0938 16.3724 44.75 16.0078C44.4115 15.6432 44.151 15.2109 43.9688 14.7109C43.7865 14.2109 43.6953 13.6641 43.6953 13.0703V12.7422C43.6953 12.0547 43.7969 11.4427 44 10.9062C44.2031 10.3646 44.4792 9.90625 44.8281 9.53125C45.1771 9.15625 45.5729 8.8724 46.0156 8.67969C46.4583 8.48698 46.9167 8.39062 47.3906 8.39062C47.9948 8.39062 48.5156 8.49479 48.9531 8.70312C49.3958 8.91146 49.7578 9.20312 50.0391 9.57812C50.3203 9.94792 50.5286 10.3854 50.6641 10.8906C50.7995 11.3906 50.8672 11.9375 50.8672 12.5312V13.1797H44.5547V12H49.4219V11.8906C49.401 11.5156 49.3229 11.151 49.1875 10.7969C49.0573 10.4427 48.849 10.151 48.5625 9.92188C48.276 9.69271 47.8854 9.57812 47.3906 9.57812C47.0625 9.57812 46.7604 9.64844 46.4844 9.78906C46.2083 9.92448 45.9714 10.1276 45.7734 10.3984C45.5755 10.6693 45.4219 11 45.3125 11.3906C45.2031 11.7812 45.1484 12.2318 45.1484 12.7422V13.0703C45.1484 13.4714 45.2031 13.849 45.3125 14.2031C45.4271 14.5521 45.5911 14.8594 45.8047 15.125C46.0234 15.3906 46.2865 15.599 46.5938 15.75C46.9062 15.901 47.2604 15.9766 47.6562 15.9766C48.1667 15.9766 48.599 15.8724 48.9531 15.6641C49.3073 15.4557 49.6172 15.1771 49.8828 14.8281L50.7578 15.5234C50.5755 15.7995 50.3438 16.0625 50.0625 16.3125C49.7812 16.5625 49.4349 16.7656 49.0234 16.9219C48.6172 17.0781 48.1354 17.1562 47.5781 17.1562ZM57.8828 15.3594V5H59.3359V17H58.0078L57.8828 15.3594ZM52.1953 12.8672V12.7031C52.1953 12.0573 52.2734 11.4714 52.4297 10.9453C52.5911 10.4141 52.8177 9.95833 53.1094 9.57812C53.4062 9.19792 53.7578 8.90625 54.1641 8.70312C54.5755 8.49479 55.0339 8.39062 55.5391 8.39062C56.0703 8.39062 56.5339 8.48438 56.9297 8.67188C57.3307 8.85417 57.6693 9.1224 57.9453 9.47656C58.2266 9.82552 58.4479 10.2474 58.6094 10.7422C58.7708 11.237 58.8828 11.7969 58.9453 12.4219V13.1406C58.888 13.7604 58.776 14.3177 58.6094 14.8125C58.4479 15.3073 58.2266 15.7292 57.9453 16.0781C57.6693 16.4271 57.3307 16.6953 56.9297 16.8828C56.5286 17.0651 56.0599 17.1562 55.5234 17.1562C55.0286 17.1562 54.5755 17.0495 54.1641 16.8359C53.7578 16.6224 53.4062 16.3229 53.1094 15.9375C52.8177 15.5521 52.5911 15.099 52.4297 14.5781C52.2734 14.0521 52.1953 13.4818 52.1953 12.8672ZM53.6484 12.7031V12.8672C53.6484 13.2891 53.6901 13.6849 53.7734 14.0547C53.862 14.4245 53.9974 14.75 54.1797 15.0312C54.362 15.3125 54.5938 15.5339 54.875 15.6953C55.1562 15.8516 55.4922 15.9297 55.8828 15.9297C56.362 15.9297 56.7552 15.8281 57.0625 15.625C57.375 15.4219 57.625 15.1536 57.8125 14.8203C58 14.487 58.1458 14.125 58.25 13.7344V11.8516C58.1875 11.5651 58.0964 11.2891 57.9766 11.0234C57.862 10.7526 57.7109 10.513 57.5234 10.3047C57.3411 10.0911 57.1146 9.92188 56.8438 9.79688C56.5781 9.67188 56.263 9.60938 55.8984 9.60938C55.5026 9.60938 55.1615 9.69271 54.875 9.85938C54.5938 10.0208 54.362 10.2448 54.1797 10.5312C53.9974 10.8125 53.862 11.1406 53.7734 11.5156C53.6901 11.8854 53.6484 12.2812 53.6484 12.7031ZM67.3906 5.625V17H65.8828V5.625H67.3906ZM71.3516 10.2266V17H69.8984V8.54688H71.2734L71.3516 10.2266ZM71.0547 12.4531L70.3828 12.4297C70.388 11.8516 70.4635 11.3177 70.6094 10.8281C70.7552 10.3333 70.9714 9.90365 71.2578 9.53906C71.5443 9.17448 71.901 8.89323 72.3281 8.69531C72.7552 8.49219 73.25 8.39062 73.8125 8.39062C74.2083 8.39062 74.5729 8.44792 74.9062 8.5625C75.2396 8.67188 75.5286 8.84635 75.7734 9.08594C76.0182 9.32552 76.2083 9.63281 76.3438 10.0078C76.4792 10.3828 76.5469 10.8359 76.5469 11.3672V17H75.1016V11.4375C75.1016 10.9948 75.026 10.6406 74.875 10.375C74.7292 10.1094 74.5208 9.91667 74.25 9.79688C73.9792 9.67188 73.6615 9.60938 73.2969 9.60938C72.8698 9.60938 72.513 9.6849 72.2266 9.83594C71.9401 9.98698 71.7109 10.1953 71.5391 10.4609C71.3672 10.7266 71.2422 11.0312 71.1641 11.375C71.0911 11.7135 71.0547 12.0729 71.0547 12.4531ZM76.5312 11.6562L75.5625 11.9531C75.5677 11.4896 75.6432 11.0443 75.7891 10.6172C75.9401 10.1901 76.1562 9.8099 76.4375 9.47656C76.724 9.14323 77.0755 8.88021 77.4922 8.6875C77.9089 8.48958 78.3854 8.39062 78.9219 8.39062C79.375 8.39062 79.776 8.45052 80.125 8.57031C80.4792 8.6901 80.776 8.875 81.0156 9.125C81.2604 9.36979 81.4453 9.6849 81.5703 10.0703C81.6953 10.4557 81.7578 10.9141 81.7578 11.4453V17H80.3047V11.4297C80.3047 10.9557 80.2292 10.5885 80.0781 10.3281C79.9323 10.0625 79.724 9.8776 79.4531 9.77344C79.1875 9.66406 78.8698 9.60938 78.5 9.60938C78.1823 9.60938 77.901 9.66406 77.6562 9.77344C77.4115 9.88281 77.2057 10.0339 77.0391 10.2266C76.8724 10.4141 76.7448 10.6302 76.6562 10.875C76.5729 11.1198 76.5312 11.3802 76.5312 11.6562ZM85.3906 9.875V17H83.9453V8.54688H85.3516L85.3906 9.875ZM88.0312 8.5L88.0234 9.84375C87.9036 9.81771 87.7891 9.80208 87.6797 9.79688C87.5755 9.78646 87.4557 9.78125 87.3203 9.78125C86.987 9.78125 86.6927 9.83333 86.4375 9.9375C86.1823 10.0417 85.9661 10.1875 85.7891 10.375C85.612 10.5625 85.4714 10.7865 85.3672 11.0469C85.2682 11.3021 85.2031 11.5833 85.1719 11.8906L84.7656 12.125C84.7656 11.6146 84.8151 11.1354 84.9141 10.6875C85.0182 10.2396 85.1771 9.84375 85.3906 9.5C85.6042 9.15104 85.875 8.88021 86.2031 8.6875C86.5365 8.48958 86.9323 8.39062 87.3906 8.39062C87.4948 8.39062 87.6146 8.40365 87.75 8.42969C87.8854 8.45052 87.9792 8.47396 88.0312 8.5ZM94.0391 15.5547V11.2031C94.0391 10.8698 93.9714 10.5807 93.8359 10.3359C93.7057 10.0859 93.5078 9.89323 93.2422 9.75781C92.9766 9.6224 92.6484 9.55469 92.2578 9.55469C91.8932 9.55469 91.5729 9.61719 91.2969 9.74219C91.026 9.86719 90.8125 10.0312 90.6562 10.2344C90.5052 10.4375 90.4297 10.6562 90.4297 10.8906H88.9844C88.9844 10.5885 89.0625 10.2891 89.2188 9.99219C89.375 9.69531 89.599 9.42708 89.8906 9.1875C90.1875 8.94271 90.5417 8.75 90.9531 8.60938C91.3698 8.46354 91.8333 8.39062 92.3438 8.39062C92.9583 8.39062 93.5 8.49479 93.9688 8.70312C94.4427 8.91146 94.8125 9.22656 95.0781 9.64844C95.349 10.0651 95.4844 10.5885 95.4844 11.2188V15.1562C95.4844 15.4375 95.5078 15.737 95.5547 16.0547C95.6068 16.3724 95.6823 16.6458 95.7812 16.875V17H94.2734C94.2005 16.8333 94.1432 16.612 94.1016 16.3359C94.0599 16.0547 94.0391 15.7943 94.0391 15.5547ZM94.2891 11.875L94.3047 12.8906H92.8438C92.4323 12.8906 92.0651 12.9245 91.7422 12.9922C91.4193 13.0547 91.1484 13.151 90.9297 13.2812C90.7109 13.4115 90.5443 13.5755 90.4297 13.7734C90.3151 13.9661 90.2578 14.1927 90.2578 14.4531C90.2578 14.7188 90.3177 14.9609 90.4375 15.1797C90.5573 15.3984 90.737 15.5729 90.9766 15.7031C91.2214 15.8281 91.5208 15.8906 91.875 15.8906C92.3177 15.8906 92.7083 15.7969 93.0469 15.6094C93.3854 15.4219 93.6536 15.1927 93.8516 14.9219C94.0547 14.651 94.1641 14.388 94.1797 14.1328L94.7969 14.8281C94.7604 15.0469 94.6615 15.2891 94.5 15.5547C94.3385 15.8203 94.1224 16.0755 93.8516 16.3203C93.5859 16.5599 93.2682 16.7604 92.8984 16.9219C92.5339 17.0781 92.1224 17.1562 91.6641 17.1562C91.0911 17.1562 90.5885 17.0443 90.1562 16.8203C89.7292 16.5964 89.3958 16.2969 89.1562 15.9219C88.9219 15.5417 88.8047 15.1172 88.8047 14.6484C88.8047 14.1953 88.8932 13.7969 89.0703 13.4531C89.2474 13.1042 89.5026 12.8151 89.8359 12.5859C90.1693 12.3516 90.5703 12.1745 91.0391 12.0547C91.5078 11.9349 92.0312 11.875 92.6094 11.875H94.2891ZM99.2031 10.3516V17H97.7578V8.54688H99.125L99.2031 10.3516ZM98.8594 12.4531L98.2578 12.4297C98.263 11.8516 98.349 11.3177 98.5156 10.8281C98.6823 10.3333 98.9167 9.90365 99.2188 9.53906C99.5208 9.17448 99.8802 8.89323 100.297 8.69531C100.719 8.49219 101.185 8.39062 101.695 8.39062C102.112 8.39062 102.487 8.44792 102.82 8.5625C103.154 8.67188 103.438 8.84896 103.672 9.09375C103.911 9.33854 104.094 9.65625 104.219 10.0469C104.344 10.4323 104.406 10.9036 104.406 11.4609V17H102.953V11.4453C102.953 11.0026 102.888 10.6484 102.758 10.3828C102.628 10.112 102.438 9.91667 102.188 9.79688C101.938 9.67188 101.63 9.60938 101.266 9.60938C100.906 9.60938 100.578 9.6849 100.281 9.83594C99.9896 9.98698 99.737 10.1953 99.5234 10.4609C99.3151 10.7266 99.151 11.0312 99.0312 11.375C98.9167 11.7135 98.8594 12.0729 98.8594 12.4531ZM116.852 14.125C116.852 13.8594 116.81 13.625 116.727 13.4219C116.648 13.2135 116.508 13.026 116.305 12.8594C116.107 12.6927 115.831 12.5339 115.477 12.3828C115.128 12.2318 114.685 12.0781 114.148 11.9219C113.586 11.7552 113.078 11.5703 112.625 11.3672C112.172 11.1589 111.784 10.9219 111.461 10.6562C111.138 10.3906 110.891 10.0859 110.719 9.74219C110.547 9.39844 110.461 9.00521 110.461 8.5625C110.461 8.11979 110.552 7.71094 110.734 7.33594C110.917 6.96094 111.177 6.63542 111.516 6.35938C111.859 6.07812 112.268 5.85938 112.742 5.70312C113.216 5.54688 113.745 5.46875 114.328 5.46875C115.182 5.46875 115.906 5.63281 116.5 5.96094C117.099 6.28385 117.555 6.70833 117.867 7.23438C118.18 7.75521 118.336 8.3125 118.336 8.90625H116.836C116.836 8.47917 116.745 8.10156 116.562 7.77344C116.38 7.4401 116.104 7.17969 115.734 6.99219C115.365 6.79948 114.896 6.70312 114.328 6.70312C113.792 6.70312 113.349 6.78385 113 6.94531C112.651 7.10677 112.391 7.32552 112.219 7.60156C112.052 7.8776 111.969 8.19271 111.969 8.54688C111.969 8.78646 112.018 9.00521 112.117 9.20312C112.221 9.39583 112.38 9.57552 112.594 9.74219C112.812 9.90885 113.089 10.0625 113.422 10.2031C113.76 10.3438 114.164 10.4792 114.633 10.6094C115.279 10.7917 115.836 10.9948 116.305 11.2188C116.773 11.4427 117.159 11.6953 117.461 11.9766C117.768 12.2526 117.995 12.5677 118.141 12.9219C118.292 13.2708 118.367 13.6667 118.367 14.1094C118.367 14.5729 118.273 14.9922 118.086 15.3672C117.898 15.7422 117.63 16.0625 117.281 16.3281C116.932 16.5938 116.513 16.7995 116.023 16.9453C115.539 17.0859 114.997 17.1562 114.398 17.1562C113.872 17.1562 113.354 17.0833 112.844 16.9375C112.339 16.7917 111.878 16.5729 111.461 16.2812C111.049 15.9896 110.719 15.6302 110.469 15.2031C110.224 14.7708 110.102 14.2708 110.102 13.7031H111.602C111.602 14.0938 111.677 14.4297 111.828 14.7109C111.979 14.987 112.185 15.2161 112.445 15.3984C112.711 15.5807 113.01 15.7161 113.344 15.8047C113.682 15.888 114.034 15.9297 114.398 15.9297C114.924 15.9297 115.37 15.8568 115.734 15.7109C116.099 15.5651 116.375 15.3568 116.562 15.0859C116.755 14.8151 116.852 14.4948 116.852 14.125ZM125.055 15.5547V11.2031C125.055 10.8698 124.987 10.5807 124.852 10.3359C124.721 10.0859 124.523 9.89323 124.258 9.75781C123.992 9.6224 123.664 9.55469 123.273 9.55469C122.909 9.55469 122.589 9.61719 122.312 9.74219C122.042 9.86719 121.828 10.0312 121.672 10.2344C121.521 10.4375 121.445 10.6562 121.445 10.8906H120C120 10.5885 120.078 10.2891 120.234 9.99219C120.391 9.69531 120.615 9.42708 120.906 9.1875C121.203 8.94271 121.557 8.75 121.969 8.60938C122.385 8.46354 122.849 8.39062 123.359 8.39062C123.974 8.39062 124.516 8.49479 124.984 8.70312C125.458 8.91146 125.828 9.22656 126.094 9.64844C126.365 10.0651 126.5 10.5885 126.5 11.2188V15.1562C126.5 15.4375 126.523 15.737 126.57 16.0547C126.622 16.3724 126.698 16.6458 126.797 16.875V17H125.289C125.216 16.8333 125.159 16.612 125.117 16.3359C125.076 16.0547 125.055 15.7943 125.055 15.5547ZM125.305 11.875L125.32 12.8906H123.859C123.448 12.8906 123.081 12.9245 122.758 12.9922C122.435 13.0547 122.164 13.151 121.945 13.2812C121.727 13.4115 121.56 13.5755 121.445 13.7734C121.331 13.9661 121.273 14.1927 121.273 14.4531C121.273 14.7188 121.333 14.9609 121.453 15.1797C121.573 15.3984 121.753 15.5729 121.992 15.7031C122.237 15.8281 122.536 15.8906 122.891 15.8906C123.333 15.8906 123.724 15.7969 124.062 15.6094C124.401 15.4219 124.669 15.1927 124.867 14.9219C125.07 14.651 125.18 14.388 125.195 14.1328L125.812 14.8281C125.776 15.0469 125.677 15.2891 125.516 15.5547C125.354 15.8203 125.138 16.0755 124.867 16.3203C124.602 16.5599 124.284 16.7604 123.914 16.9219C123.549 17.0781 123.138 17.1562 122.68 17.1562C122.107 17.1562 121.604 17.0443 121.172 16.8203C120.745 16.5964 120.411 16.2969 120.172 15.9219C119.938 15.5417 119.82 15.1172 119.82 14.6484C119.82 14.1953 119.909 13.7969 120.086 13.4531C120.263 13.1042 120.518 12.8151 120.852 12.5859C121.185 12.3516 121.586 12.1745 122.055 12.0547C122.523 11.9349 123.047 11.875 123.625 11.875H125.305ZM132.281 17.1562C131.693 17.1562 131.159 17.0573 130.68 16.8594C130.206 16.6562 129.797 16.3724 129.453 16.0078C129.115 15.6432 128.854 15.2109 128.672 14.7109C128.49 14.2109 128.398 13.6641 128.398 13.0703V12.7422C128.398 12.0547 128.5 11.4427 128.703 10.9062C128.906 10.3646 129.182 9.90625 129.531 9.53125C129.88 9.15625 130.276 8.8724 130.719 8.67969C131.161 8.48698 131.62 8.39062 132.094 8.39062C132.698 8.39062 133.219 8.49479 133.656 8.70312C134.099 8.91146 134.461 9.20312 134.742 9.57812C135.023 9.94792 135.232 10.3854 135.367 10.8906C135.503 11.3906 135.57 11.9375 135.57 12.5312V13.1797H129.258V12H134.125V11.8906C134.104 11.5156 134.026 11.151 133.891 10.7969C133.76 10.4427 133.552 10.151 133.266 9.92188C132.979 9.69271 132.589 9.57812 132.094 9.57812C131.766 9.57812 131.464 9.64844 131.188 9.78906C130.911 9.92448 130.674 10.1276 130.477 10.3984C130.279 10.6693 130.125 11 130.016 11.3906C129.906 11.7812 129.852 12.2318 129.852 12.7422V13.0703C129.852 13.4714 129.906 13.849 130.016 14.2031C130.13 14.5521 130.294 14.8594 130.508 15.125C130.727 15.3906 130.99 15.599 131.297 15.75C131.609 15.901 131.964 15.9766 132.359 15.9766C132.87 15.9766 133.302 15.8724 133.656 15.6641C134.01 15.4557 134.32 15.1771 134.586 14.8281L135.461 15.5234C135.279 15.7995 135.047 16.0625 134.766 16.3125C134.484 16.5625 134.138 16.7656 133.727 16.9219C133.32 17.0781 132.839 17.1562 132.281 17.1562ZM140.766 17.1562C140.177 17.1562 139.643 17.0573 139.164 16.8594C138.69 16.6562 138.281 16.3724 137.938 16.0078C137.599 15.6432 137.339 15.2109 137.156 14.7109C136.974 14.2109 136.883 13.6641 136.883 13.0703V12.7422C136.883 12.0547 136.984 11.4427 137.188 10.9062C137.391 10.3646 137.667 9.90625 138.016 9.53125C138.365 9.15625 138.76 8.8724 139.203 8.67969C139.646 8.48698 140.104 8.39062 140.578 8.39062C141.182 8.39062 141.703 8.49479 142.141 8.70312C142.583 8.91146 142.945 9.20312 143.227 9.57812C143.508 9.94792 143.716 10.3854 143.852 10.8906C143.987 11.3906 144.055 11.9375 144.055 12.5312V13.1797H137.742V12H142.609V11.8906C142.589 11.5156 142.51 11.151 142.375 10.7969C142.245 10.4427 142.036 10.151 141.75 9.92188C141.464 9.69271 141.073 9.57812 140.578 9.57812C140.25 9.57812 139.948 9.64844 139.672 9.78906C139.396 9.92448 139.159 10.1276 138.961 10.3984C138.763 10.6693 138.609 11 138.5 11.3906C138.391 11.7812 138.336 12.2318 138.336 12.7422V13.0703C138.336 13.4714 138.391 13.849 138.5 14.2031C138.615 14.5521 138.779 14.8594 138.992 15.125C139.211 15.3906 139.474 15.599 139.781 15.75C140.094 15.901 140.448 15.9766 140.844 15.9766C141.354 15.9766 141.786 15.8724 142.141 15.6641C142.495 15.4557 142.805 15.1771 143.07 14.8281L143.945 15.5234C143.763 15.7995 143.531 16.0625 143.25 16.3125C142.969 16.5625 142.622 16.7656 142.211 16.9219C141.805 17.0781 141.323 17.1562 140.766 17.1562ZM151.07 15.3594V5H152.523V17H151.195L151.07 15.3594ZM145.383 12.8672V12.7031C145.383 12.0573 145.461 11.4714 145.617 10.9453C145.779 10.4141 146.005 9.95833 146.297 9.57812C146.594 9.19792 146.945 8.90625 147.352 8.70312C147.763 8.49479 148.221 8.39062 148.727 8.39062C149.258 8.39062 149.721 8.48438 150.117 8.67188C150.518 8.85417 150.857 9.1224 151.133 9.47656C151.414 9.82552 151.635 10.2474 151.797 10.7422C151.958 11.237 152.07 11.7969 152.133 12.4219V13.1406C152.076 13.7604 151.964 14.3177 151.797 14.8125C151.635 15.3073 151.414 15.7292 151.133 16.0781C150.857 16.4271 150.518 16.6953 150.117 16.8828C149.716 17.0651 149.247 17.1562 148.711 17.1562C148.216 17.1562 147.763 17.0495 147.352 16.8359C146.945 16.6224 146.594 16.3229 146.297 15.9375C146.005 15.5521 145.779 15.099 145.617 14.5781C145.461 14.0521 145.383 13.4818 145.383 12.8672ZM146.836 12.7031V12.8672C146.836 13.2891 146.878 13.6849 146.961 14.0547C147.049 14.4245 147.185 14.75 147.367 15.0312C147.549 15.3125 147.781 15.5339 148.062 15.6953C148.344 15.8516 148.68 15.9297 149.07 15.9297C149.549 15.9297 149.943 15.8281 150.25 15.625C150.562 15.4219 150.812 15.1536 151 14.8203C151.188 14.487 151.333 14.125 151.438 13.7344V11.8516C151.375 11.5651 151.284 11.2891 151.164 11.0234C151.049 10.7526 150.898 10.513 150.711 10.3047C150.529 10.0911 150.302 9.92188 150.031 9.79688C149.766 9.67188 149.451 9.60938 149.086 9.60938C148.69 9.60938 148.349 9.69271 148.062 9.85938C147.781 10.0208 147.549 10.2448 147.367 10.5312C147.185 10.8125 147.049 11.1406 146.961 11.5156C146.878 11.8854 146.836 12.2812 146.836 12.7031ZM158.961 5.625H162.727C163.581 5.625 164.302 5.75521 164.891 6.01562C165.484 6.27604 165.935 6.66146 166.242 7.17188C166.555 7.67708 166.711 8.29948 166.711 9.03906C166.711 9.5599 166.604 10.0365 166.391 10.4688C166.182 10.8958 165.88 11.2604 165.484 11.5625C165.094 11.8594 164.625 12.0807 164.078 12.2266L163.656 12.3906H160.117L160.102 11.1641H162.773C163.315 11.1641 163.766 11.0703 164.125 10.8828C164.484 10.6901 164.755 10.4323 164.938 10.1094C165.12 9.78646 165.211 9.42969 165.211 9.03906C165.211 8.60156 165.125 8.21875 164.953 7.89062C164.781 7.5625 164.51 7.3099 164.141 7.13281C163.776 6.95052 163.305 6.85938 162.727 6.85938H160.469V17H158.961V5.625ZM165.609 17L162.844 11.8438L164.414 11.8359L167.219 16.9062V17H165.609ZM170.172 8.54688V17H168.719V8.54688H170.172ZM168.609 6.30469C168.609 6.07031 168.68 5.8724 168.82 5.71094C168.966 5.54948 169.18 5.46875 169.461 5.46875C169.737 5.46875 169.948 5.54948 170.094 5.71094C170.245 5.8724 170.32 6.07031 170.32 6.30469C170.32 6.52865 170.245 6.72135 170.094 6.88281C169.948 7.03906 169.737 7.11719 169.461 7.11719C169.18 7.11719 168.966 7.03906 168.82 6.88281C168.68 6.72135 168.609 6.52865 168.609 6.30469ZM178.789 15.8125V17H172.641V15.8125H178.789ZM178.562 9.57031L172.969 17H172.086V15.9375L177.641 8.54688H178.562V9.57031ZM177.922 8.54688V9.74219H172.148V8.54688H177.922ZM183 15.6953L185.312 8.54688H186.789L183.75 17H182.781L183 15.6953ZM181.07 8.54688L183.453 15.7344L183.617 17H182.648L179.586 8.54688H181.07ZM189.75 8.54688V17H188.297V8.54688H189.75ZM188.188 6.30469C188.188 6.07031 188.258 5.8724 188.398 5.71094C188.544 5.54948 188.758 5.46875 189.039 5.46875C189.315 5.46875 189.526 5.54948 189.672 5.71094C189.823 5.8724 189.898 6.07031 189.898 6.30469C189.898 6.52865 189.823 6.72135 189.672 6.88281C189.526 7.03906 189.315 7.11719 189.039 7.11719C188.758 7.11719 188.544 7.03906 188.398 6.88281C188.258 6.72135 188.188 6.52865 188.188 6.30469Z" fill="white"/>
</g>
<defs>
<clipPath id="clip0_1_7">
<rect width="203" height="22" fill="white"/>
</clipPath>
</defs>
</svg>
