<svg width="22" height="22" viewBox="0 0 22 22" fill="none" xmlns="http://www.w3.org/2000/svg">
<mask id="mask0_1368_28" style="mask-type:luminance" maskUnits="userSpaceOnUse" x="1" y="1" width="20" height="20">
<path d="M1.57031 1.57144H20.4275V20.4286H1.57031V1.57144Z" fill="white"/>
</mask>
<g mask="url(#mask0_1368_28)">
<path d="M8.91595 20.3914C9.13573 20.3906 9.34504 20.2882 9.4835 20.1123L13.8001 14.6534C13.9788 14.4254 14.2429 14.2874 14.5262 14.2676C15.605 14.1949 16.0405 15.666 15.1043 16.2211L15.0576 16.2491C14.0481 16.8372 13.0385 17.4262 12.0298 18.0143C11.9493 18.0605 11.8785 18.1233 11.8205 18.1968L11.0823 19.136C10.6935 19.6307 11.0372 20.3667 11.6563 20.365C12.7238 20.3625 13.7912 20.3609 14.8587 20.3576C15.0833 20.3576 15.2951 20.2519 15.4351 20.0701L16.5171 18.6643C16.6531 18.4867 16.7055 18.2555 16.658 18.0341L15.1896 11.1685C15.1276 10.8828 15.188 10.5854 15.3482 10.345C15.9656 9.43481 17.3584 10.0023 17.1973 11.1L17.1893 11.1553C17.0082 12.3315 16.827 13.5077 16.6459 14.6839C16.6322 14.7781 16.6346 14.8739 16.6548 14.9656L16.91 16.1434C17.0444 16.7637 17.8204 16.9471 18.2053 16.4499C18.8211 15.6536 19.6125 14.6311 20.1969 13.8769C20.337 13.696 20.3885 13.4598 20.337 13.2351L19.9401 11.4907C19.8894 11.2701 19.7453 11.0843 19.5481 10.9852L13.4 7.88196C13.144 7.75394 12.954 7.52018 12.8719 7.24183C12.5628 6.17879 13.8637 5.41558 14.5995 6.22918L14.6373 6.27047C15.4206 7.14849 16.2039 8.02734 16.9872 8.90618C17.05 8.97556 17.1249 9.03255 17.2078 9.07468L18.264 9.60413C18.8211 9.88331 19.4434 9.37451 19.3049 8.75585C19.065 7.68868 18.8251 6.62152 18.586 5.55435C18.5353 5.32968 18.3872 5.14136 18.1843 5.04224L16.6073 4.27325C16.4084 4.17579 16.1774 4.17496 15.9777 4.2716L9.78056 7.26826C9.52214 7.39381 9.22589 7.40042 8.96264 7.29304C7.96037 6.8784 8.18981 5.35859 9.26775 5.27599L9.32249 5.27186C10.4801 5.19092 11.6386 5.10997 12.7962 5.02902C12.888 5.02324 12.979 4.99846 13.0619 4.95799L14.1245 4.44093C14.684 4.16835 14.6856 3.35228 14.1261 3.07723C13.1633 2.60394 12.2013 2.13148 11.2393 1.6582C11.0364 1.55908 10.7997 1.5599 10.5985 1.66067L9.02866 2.44618C8.83062 2.54447 8.68571 2.73032 8.6358 2.95086L7.05471 9.78998C6.99031 10.0749 6.80998 10.317 6.56364 10.4615C5.62255 11.0066 4.60821 9.87505 5.21681 8.95822L5.2466 8.91196C5.90754 7.93235 6.56847 6.95356 7.2286 5.97477C7.28093 5.8963 7.31876 5.80875 7.33969 5.71624L7.60777 4.5417C7.74865 3.92304 7.12797 3.41258 6.57008 3.69011C5.6781 4.13284 4.53334 4.70194 3.68805 5.12153C3.48599 5.2223 3.33947 5.41228 3.29117 5.63695L2.91119 7.38555C2.86289 7.60691 2.91441 7.83819 3.05047 8.0166L7.27609 13.5482C7.4532 13.7778 7.52485 14.0735 7.48138 14.361C7.31071 15.4554 5.81496 15.5644 5.49616 14.5039L5.48006 14.4502C5.14597 13.3103 4.81108 12.1696 4.47699 11.0289C4.45042 10.9381 4.40695 10.8538 4.34979 10.7795L3.62204 9.83128C3.23804 9.33239 2.46198 9.51245 2.32593 10.1328C2.09086 11.2008 1.85579 12.2687 1.61992 13.3367C1.57001 13.5622 1.62314 13.7976 1.76402 13.9777L2.85967 15.3728C2.99894 15.5487 3.20664 15.652 3.42722 15.6536L10.2781 15.7123C10.5631 15.7139 10.8335 15.8403 11.0251 16.055C11.7529 16.8752 10.9028 18.1415 9.89648 17.7367L9.84577 17.7161C8.76863 17.2742 7.69069 16.8306 6.61355 16.3879C6.52741 16.3524 6.43644 16.3342 6.34386 16.3342L5.16851 16.3268C4.54864 16.3235 4.20167 17.0586 4.58889 17.5542C5.25626 18.4091 5.92364 19.264 6.59101 20.1189C6.73109 20.2989 6.94442 20.403 7.16903 20.4022L8.91595 20.3931V20.3914ZM6.95408 12.1159L7.55544 9.1581C7.60133 8.93344 7.74463 8.74181 7.94427 8.63856L10.5727 7.27569C10.7732 7.17245 11.0082 7.16749 11.2119 7.2633L13.8878 8.5221C14.0923 8.61874 14.2421 8.80458 14.296 9.0276L15.0052 11.959C15.0592 12.182 15.0109 12.4183 14.8748 12.6008L13.082 14.9978C12.946 15.1812 12.7358 15.2894 12.512 15.2935L9.56803 15.3513C9.34423 15.3554 9.13009 15.2547 8.98679 15.0779L7.10784 12.7511C6.96535 12.5744 6.90819 12.3398 6.95408 12.1151V12.1159Z" fill="#FF0033"/>
</g>
</svg>
