<svg width="19" height="19" viewBox="0 0 19 19" fill="none" xmlns="http://www.w3.org/2000/svg">
<path d="M7.31438 18.8069C7.53416 18.8061 7.74347 18.7037 7.88193 18.5278L12.1985 13.0689C12.3772 12.8409 12.6413 12.7029 12.9246 12.6831C14.0034 12.6104 14.4389 14.0815 13.5027 14.6366L13.456 14.6646C12.4465 15.2527 11.4369 15.8417 10.4282 16.4298C10.3477 16.476 10.2769 16.5388 10.2189 16.6123L9.48073 17.5515C9.09193 18.0462 9.43563 18.7822 10.0547 18.7805C11.1222 18.778 12.1896 18.7764 13.2571 18.7731C13.4817 18.7731 13.6935 18.6674 13.8335 18.4856L14.9155 17.0798C15.0515 16.9022 15.1039 16.671 15.0564 16.4496L13.588 9.58403C13.526 9.29833 13.5864 9.00093 13.7466 8.76053C14.364 7.85034 15.7568 8.41783 15.5957 9.51553L15.5877 9.57083C15.4066 10.747 15.2254 11.9232 15.0443 13.0994C15.0306 13.1936 15.033 13.2894 15.0532 13.3811L15.3084 14.5589C15.4428 15.1792 16.2188 15.3626 16.6037 14.8654C17.2195 14.0691 18.0109 13.0466 18.5953 12.2924C18.7354 12.1115 18.7869 11.8753 18.7354 11.6506L18.3385 9.90623C18.2878 9.68563 18.1437 9.49983 17.9465 9.40073L11.7984 6.29749C11.5424 6.16947 11.3524 5.93571 11.2703 5.65736C10.9612 4.59432 12.2621 3.83111 12.9979 4.64471L13.0357 4.686C13.819 5.56402 14.6023 6.44287 15.3856 7.32171C15.4484 7.39109 15.5233 7.44808 15.6062 7.49021L16.6624 8.01966C17.2195 8.29884 17.8418 7.79004 17.7033 7.17138C17.4634 6.10421 17.2235 5.03705 16.9844 3.96988C16.9337 3.74521 16.7856 3.55689 16.5827 3.45777L15.0057 2.68878C14.8068 2.59132 14.5758 2.59049 14.3761 2.68713L8.17899 5.68379C7.92057 5.80934 7.62432 5.81595 7.36107 5.70857C6.3588 5.29393 6.58824 3.77412 7.66618 3.69152L7.72092 3.68739C8.87853 3.60645 10.037 3.5255 11.1946 3.44455C11.2864 3.43877 11.3774 3.41399 11.4603 3.37352L12.5229 2.85646C13.0824 2.58388 13.084 1.76781 12.5245 1.49276C11.5617 1.01947 10.5997 0.547009 9.63773 0.0737288C9.43483 -0.0253912 9.19813 -0.0245712 8.99693 0.0761988L7.42709 0.861709C7.22905 0.959999 7.08415 1.14585 7.03424 1.36639L5.45314 8.20551C5.38874 8.49043 5.20841 8.73253 4.96207 8.87703C4.02098 9.42213 3.00664 8.29058 3.61524 7.37375L3.64503 7.32749C4.30597 6.34788 4.9669 5.36909 5.62703 4.3903C5.67936 4.31183 5.71719 4.22428 5.73812 4.13177L6.0062 2.95723C6.14708 2.33857 5.5264 1.82811 4.96851 2.10564C4.07653 2.54837 2.93177 3.11747 2.08648 3.53706C1.88442 3.63783 1.7379 3.82781 1.6896 4.05248L1.30962 5.80108C1.26132 6.02244 1.31284 6.25372 1.4489 6.43213L5.67452 11.9637C5.85163 12.1933 5.92328 12.489 5.87981 12.7765C5.70914 13.8709 4.21339 13.9799 3.89459 12.9194L3.87849 12.8657C3.5444 11.7258 3.20951 10.5851 2.87542 9.44443C2.84885 9.35363 2.80538 9.26933 2.74822 9.19503L2.02047 8.24681C1.63647 7.74792 0.860415 7.92798 0.724365 8.54833C0.489295 9.61633 0.254225 10.6842 0.0183547 11.7522C-0.0315554 11.9777 0.0215746 12.2131 0.162455 12.3932L1.2581 13.7883C1.39737 13.9642 1.60507 14.0675 1.82565 14.0691L8.67653 14.1278C8.96153 14.1294 9.23193 14.2558 9.42353 14.4705C10.1513 15.2907 9.30123 16.557 8.29491 16.1522L8.2442 16.1316C7.16706 15.6897 6.08912 15.2461 5.01198 14.8034C4.92584 14.7679 4.83487 14.7497 4.74229 14.7497L3.56694 14.7423C2.94707 14.739 2.6001 15.4741 2.98732 15.9697C3.65469 16.8246 4.32207 17.6795 4.98944 18.5344C5.12952 18.7144 5.34285 18.8185 5.56746 18.8177L7.31438 18.8086V18.8069ZM5.35251 10.5314L5.95387 7.57363C5.99976 7.34897 6.14306 7.15734 6.3427 7.05409L8.97113 5.69122C9.17163 5.58798 9.40663 5.58302 9.61033 5.67883L12.2862 6.93763C12.4907 7.03427 12.6405 7.22011 12.6944 7.44313L13.4036 10.3745C13.4576 10.5975 13.4093 10.8338 13.2732 11.0163L11.4804 13.4133C11.3444 13.5967 11.1342 13.7049 10.9104 13.709L7.96646 13.7668C7.74266 13.7709 7.52852 13.6702 7.38522 13.4934L5.50627 11.1666C5.36378 10.9899 5.30662 10.7561 5.35251 10.5314Z" fill="#00BFFF"/>
</svg>
